PathFileType	4	(X/Y/Z)	D:\TRACE\spot_10-12-23\spot_arm_motion_3_3-platform.trc
DataRate	CameraRate	NumFrames	NumMarkers	Units	OrigDataRate	OrigDataStartFrame	OrigNumFrames
100.00	100.00	      55	5	mm	100.00	1751	      7000
Frame#	Time	Left_Front			Right_Front			Left_Aft			Right_Aft			Post			
		X1	Y1	Z1	X2	Y2	Z2	X3	Y3	Z3	X4	Y4	Z4	X5	Y5	Z5	

1751	17.500	-801.15179	17.70238	-638.56140	771.55499	22.36805	-631.73950	-717.95740	-2.81945	498.98297	699.24268	0.29454	585.27026	-17.99470	761.20197	-943.73444	
1752	17.510	-801.30359	17.62159	-638.86285	771.35559	21.89250	-631.91095	-717.98511	-2.45369	498.85602	699.20026	0.70247	585.19824	-18.04942	760.39368	-944.43066	
1753	17.520	-801.23956	17.04360	-639.04907	771.35315	21.28191	-632.06854	-717.99615	-2.13739	498.86053	699.19971	1.14330	585.08893	-18.50829	759.52832	-945.22137	
1754	17.530	-801.20264	16.54599	-639.13513	771.37317	20.90804	-632.13409	-718.03589	-1.71924	498.75955	699.24316	1.66702	584.90210	-18.40512	759.01660	-945.83795	
1755	17.540	-801.28302	16.07010	-639.23096	771.36749	20.43637	-632.20477	-718.16370	-1.38599	498.59323	699.12445	2.06658	584.71448	-18.31689	758.11945	-946.53961	
1756	17.550	-801.45221	15.64701	-639.28998	771.30762	19.95319	-632.23169	-718.22882	-1.10839	498.54034	699.00769	2.24815	584.65082	-18.34950	757.65558	-947.10718	
1757	17.560	-801.57935	15.06399	-639.46588	771.21448	19.54395	-632.33447	-718.33984	-0.83846	498.42163	698.84320	2.52476	584.55707	-18.53741	756.92438	-947.77838	
1758	17.570	-801.68707	14.86983	-639.64398	771.10547	18.99320	-632.59833	-718.43915	-0.48504	498.27411	698.76636	2.93515	584.40991	-18.66355	756.08698	-948.56921	
1759	17.580	-801.53168	14.19128	-639.68573	771.08575	18.61475	-632.72839	-718.57532	-0.19209	498.12390	698.76355	3.27758	584.34497	-18.71247	755.67303	-949.18848	
1760	17.590	-801.62958	13.63642	-639.63873	771.06171	18.10178	-632.79938	-718.63751	0.15048	498.04681	698.73340	3.64834	584.23425	-18.68856	755.08337	-949.65997	
1761	17.600	-801.79797	13.28986	-639.75684	771.06897	17.81942	-632.87561	-718.55890	0.38574	498.06134	698.67017	4.13089	584.11530	-18.82074	754.23077	-950.14380	
1762	17.610	-801.84650	12.85926	-640.00690	771.12152	17.44436	-632.97589	-718.63080	0.68109	497.97626	698.63672	4.56918	584.09680	-18.72835	753.53516	-950.69952	
1763	17.620	-801.83496	12.41574	-640.08685	770.90790	16.93818	-633.27704	-718.66730	0.90254	497.85400	698.66278	4.87624	584.00800	-18.89089	753.22119	-951.36688	
1764	17.630	-801.90155	12.10960	-640.17242	770.71350	16.44008	-633.47498	-718.75281	1.22431	497.72275	698.65051	5.17295	583.94409	-19.05168	752.58276	-951.92743	
1765	17.640	-802.04272	11.85874	-640.26282	770.67834	16.08372	-633.48572	-718.85065	1.48721	497.57016	698.52710	5.38344	583.80688	-19.32278	751.88806	-952.43958	
1766	17.650	-802.30981	11.78434	-640.27777	770.62054	15.88914	-633.45392	-719.06049	1.87842	497.43881	698.42065	5.64945	583.72949	-19.33114	751.50275	-952.82874	
1767	17.660	-802.03888	11.18308	-640.47656	770.63116	15.51427	-633.46936	-719.12256	2.05682	497.39938	698.21960	5.90764	583.64301	-19.12525	751.05463	-953.30060	
1768	17.670	-802.26587	10.80242	-640.49762	770.56116	15.12283	-633.54834	-719.18909	2.28838	497.30478	698.18500	6.16612	583.54736	-18.98612	750.41870	-953.82819	
1769	17.680	-802.20288	10.19374	-640.54364	770.53326	14.75573	-633.73291	-719.24878	2.46929	497.26184	698.13086	6.43291	583.48157	-19.13156	749.77118	-954.27625	
1770	17.690	-802.17163	9.70974	-640.62122	770.45667	14.44308	-633.84357	-719.32068	2.63223	497.21255	698.05316	6.73384	583.41290	-19.39604	749.32623	-954.76379	
1771	17.700	-802.25360	9.52019	-640.59485	770.37415	14.14517	-633.86127	-719.31482	2.72506	497.16177	697.96301	7.02687	583.30054	-19.68546	749.06647	-955.15637	
1772	17.710	-802.43170	9.27914	-640.63867	770.24719	13.90208	-633.94031	-719.22461	2.82049	497.27332	697.78552	7.34230	583.24194	-19.67802	748.68976	-955.58704	
1773	17.720	-802.53632	9.11140	-640.80609	770.19775	13.57222	-633.95074	-719.39990	3.09345	497.17764	697.67896	7.53111	583.13904	-19.66617	748.15460	-955.94086	
1774	17.730	-802.68781	9.14458	-640.99402	770.04523	13.25723	-634.00684	-719.46216	3.31186	497.14890	697.63416	7.71864	583.09064	-19.70188	747.69000	-956.41797	
1775	17.740	-802.71600	8.74505	-641.01862	769.97687	13.00571	-634.10193	-719.56464	3.58304	497.13565	697.72388	7.96785	583.00562	-19.55356	747.28546	-956.66968	
1776	17.750	-802.66138	8.21931	-641.10150	769.86096	12.73705	-634.15680	-719.69659	3.79500	497.06268	697.73950	8.16324	583.01813	-19.51367	746.94385	-957.01025	
1777	17.760	-802.66180	7.81679	-641.07751	769.77490	12.48451	-634.22150	-719.81293	4.04770	497.00858	697.64868	8.38697	582.95691	-19.61057	746.65546	-957.14154	
1778	17.770	-802.74188	7.60223	-641.16956	769.65137	12.28861	-634.19330	-719.94666	4.26096	496.70172	697.59070	8.64559	582.82971	-19.93773	746.28015	-957.45245	
1779	17.780	-802.85706	7.47529	-641.23657	769.51160	12.10004	-634.22864	-720.01184	4.42250	496.67252	697.46570	8.83091	582.78534	-20.10148	745.86127	-957.83557	
1780	17.790	-802.28857	6.85724	-641.65021	769.44684	11.87738	-634.31494	-720.04303	4.51150	496.83249	697.37921	8.95674	582.71545	-20.29663	745.55707	-958.24689	
1781	17.800	-803.07568	7.24555	-641.32574	769.40247	11.70431	-634.37756	-720.16357	4.62842	496.73093	697.30768	9.08993	582.70551	-20.39271	745.38812	-958.59106	
1782	17.810	-803.18170	7.09583	-641.37683	769.42987	11.48262	-634.48499	-720.06000	4.74619	496.67154	697.23590	9.19156	582.69794	-20.44953	745.18042	-958.91418	
1783	17.820	-803.30713	7.01487	-641.43097	769.46027	11.35543	-634.50372	-720.24133	4.84529	496.63715	697.19031	9.29542	582.68549	-20.46057	744.89838	-959.14532	
1784	17.830	-803.38776	6.89733	-641.47955	769.42389	11.23608	-634.50244	-720.33765	4.92727	496.60034	697.10187	9.41347	582.63849	-20.46805	744.64160	-959.27448	
1785	17.840	-803.53723	6.83826	-641.52655	769.36438	11.02660	-634.52924	-720.50385	5.08089	496.33975	696.98669	9.55075	582.61340	-20.47008	744.51904	-959.41919	
1786	17.850	-803.68439	6.77545	-641.56781	769.27435	10.83624	-634.58807	-720.49103	5.15462	496.32733	696.89923	9.65278	582.55182	-20.54134	744.09961	-959.58435	
1787	17.860	-803.64581	6.49645	-641.63885	769.16113	10.65132	-634.59583	-720.58856	5.27881	496.24124	696.77991	9.76791	582.55731	-20.58764	743.81512	-959.71332	
1788	17.870	-803.72089	6.37151	-641.69812	769.11432	10.48400	-634.60236	-720.71100	5.31871	496.19199	696.73248	9.93553	582.55798	-20.70804	743.63843	-959.81598	
1789	17.880	-803.77924	6.15506	-641.69928	769.05762	10.44145	-634.62030	-720.66516	5.40030	496.13721	696.64514	9.97303	582.52118	-20.74586	743.45868	-959.88458	
1790	17.890	-803.78973	5.91724	-641.66913	769.01343	10.29068	-634.66907	-720.66455	5.43104	496.16919	696.54480	10.06525	582.48724	-20.83847	743.34027	-960.02899	
1791	17.900	-803.84619	5.79225	-641.68707	768.91626	10.22211	-634.67963	-720.72180	5.49763	496.08817	696.53113	10.13367	582.51520	-20.81729	743.22803	-960.09338	
1792	17.910	-803.80023	5.53848	-641.68945	768.87061	10.11439	-634.71570	-720.72742	5.53936	496.10727	696.49524	10.20404	582.47290	-20.78491	743.12177	-960.16278	
1793	17.920	-803.88641	5.51826	-641.69891	768.83551	10.02908	-634.76251	-720.92639	5.55172	496.11893	696.41565	10.24881	582.48096	-20.77607	743.06805	-960.22253	
1794	17.930	-804.00696	5.47422	-641.72162	768.69403	9.96360	-634.77252	-720.89258	5.60636	496.08417	696.37640	10.30494	582.46539	-20.81629	743.03333	-960.31750	
1795	17.940	-803.98969	5.25048	-641.70239	768.65729	9.87289	-634.77271	-721.09894	5.60983	496.08072	696.30292	10.33165	582.44824	-20.97394	742.98743	-960.47949	
1796	17.950	-804.11945	5.26125	-641.73407	768.52533	9.82825	-634.82837	-721.08069	5.62871	496.09662	696.14819	10.34397	582.44446	-21.14265	742.90356	-960.61206	
1797	17.960	-804.07703	5.12700	-641.72687	768.39008	9.79419	-634.90826	-721.26392	5.69479	496.07556	696.10999	10.37335	582.42365	-21.41174	742.90344	-960.80023	
1798	17.970	-804.34668	5.52353	-641.80078	768.39417	9.80274	-634.86261	-721.21045	5.69817	496.04028	696.04224	10.39346	582.38959	-21.47713	742.87677	-960.87067	
1799	17.980	-804.41656	5.47254	-641.79913	768.41156	9.73166	-634.80908	-721.34686	5.68012	496.08859	695.98419	10.41109	582.38983	-21.49142	742.90222	-960.92902	
1800	17.990	-804.25946	5.05622	-641.77283	768.37073	9.74667	-634.81110	-721.41125	5.73075	496.04419	695.92523	10.40454	582.36279	-21.54018	742.83600	-960.92529	
1801	18.000	-804.51141	5.43818	-641.82660	768.24158	9.72380	-634.88666	-721.42615	5.71916	496.06595	695.87537	10.44370	582.37427	-21.63616	742.81696	-960.92230	
1802	18.010	-804.28497	5.01112	-641.77277	768.18463	9.72106	-634.88995	-721.52380	5.71750	496.07111	695.82458	10.43816	582.36591	-21.65700	742.78381	-960.90527	
1803	18.020	-804.37970	5.09872	-641.76996	768.17383	9.72169	-634.89551	-721.54041	5.71832	496.05063	695.75830	10.43319	582.34326	-21.66020	742.78979	-960.87158	
1804	18.030	-804.44379	5.12788	-641.75171	768.08911	9.74688	-634.92010	-721.60040	5.73967	496.06915	695.73022	10.45478	582.34711	-21.70686	742.77917	-960.84930	
1805	18.040	-804.45135	5.14314	-641.77191	768.08917	9.75253	-634.89209	-721.63440	5.72945	496.05771	695.64343	10.41980	582.31970	-21.73300	742.79596	-960.85748	
